
<svg xmlns="http://www.w3.org/2000/svg" style="display:none">
  <symbol id="agent" viewBox="0 0 24 24" fill="none" stroke="currentColor" stroke-width="1.5" stroke-linecap="round" stroke-linejoin="round"><circle cx="12" cy="12" r="9"></circle><circle cx="12" cy="12" r="4.5"></circle><circle cx="12" cy="12" r="1.2" fill="currentColor"></circle></symbol>
  <symbol id="factory" viewBox="0 0 24 24" fill="none" stroke="currentColor" stroke-width="1.5" stroke-linecap="round" stroke-linejoin="round"><path d="M3 19h18"></path><path d="M5 19V11l5 3V11l5 3V11l4 3v5"></path><circle cx="12" cy="6" r="1" fill="currentColor"></circle></symbol>
  <symbol id="build" viewBox="0 0 24 24" fill="none" stroke="currentColor" stroke-width="1.5" stroke-linecap="round" stroke-linejoin="round"><circle cx="12" cy="12" r="3"></circle><path d="M12 3v3M12 18v3M3 12h3M18 12h3M5.6 5.6l2.1 2.1M16.3 16.3l2.1 2.1M5.6 18.4l2.1-2.1M16.3 7.7l2.1-2.1"></path></symbol>
  <symbol id="spec" viewBox="0 0 24 24" fill="none" stroke="currentColor" stroke-width="1.5" stroke-linecap="round" stroke-linejoin="round"><rect x="5" y="3" width="14" height="18" rx="2"></rect><path d="M9 8h6M9 12h6M9 16h4"></path></symbol>
  <symbol id="ship" viewBox="0 0 24 24" fill="none" stroke="currentColor" stroke-width="1.5" stroke-linecap="round" stroke-linejoin="round"><path d="M3 14l9-9 9 9"></path><path d="M5 14v6h14v-6"></path><circle cx="12" cy="14" r="1.5" fill="currentColor"></circle></symbol>
  <symbol id="qa" viewBox="0 0 24 24" fill="none" stroke="currentColor" stroke-width="1.5" stroke-linecap="round" stroke-linejoin="round"><circle cx="11" cy="11" r="6"></circle><path d="M15.5 15.5L20 20"></path><path d="M9 11l1.8 1.8L13.5 10"></path></symbol>
  <symbol id="shield" viewBox="0 0 24 24" fill="none" stroke="currentColor" stroke-width="1.5" stroke-linecap="round" stroke-linejoin="round"><path d="M12 3l8 3v6c0 4.5-3.5 8-8 9-4.5-1-8-4.5-8-9V6l8-3z"></path><path d="M9 12l2.2 2.2L15 10.4"></path></symbol>
  <symbol id="pulse" viewBox="0 0 24 24" fill="none" stroke="currentColor" stroke-width="1.5" stroke-linecap="round" stroke-linejoin="round"><path d="M3 12h4l2-5 4 10 2-5h6"></path></symbol>
  <symbol id="clock" viewBox="0 0 24 24" fill="none" stroke="currentColor" stroke-width="1.5" stroke-linecap="round" stroke-linejoin="round"><circle cx="12" cy="12" r="9"></circle><path d="M12 7v5l3 2"></path></symbol>
  <symbol id="link" viewBox="0 0 24 24" fill="none" stroke="currentColor" stroke-width="1.5" stroke-linecap="round" stroke-linejoin="round"><path d="M9 13a4 4 0 015 0l3-3a4 4 0 00-5.5-5.5L9 7"></path><path d="M15 11a4 4 0 01-5 0l-3 3a4 4 0 005.5 5.5l2.5-2.5"></path></symbol>
  <symbol id="spark" viewBox="0 0 24 24" fill="none" stroke="currentColor" stroke-width="1.5" stroke-linecap="round" stroke-linejoin="round"><path d="M12 3v6M12 15v6M3 12h6M15 12h6"></path><circle cx="12" cy="12" r="2.5"></circle></symbol>
  <symbol id="user" viewBox="0 0 24 24" fill="none" stroke="currentColor" stroke-width="1.5" stroke-linecap="round" stroke-linejoin="round"><circle cx="12" cy="8" r="4"></circle><path d="M4 21c0-4.4 3.6-8 8-8s8 3.6 8 8"></path></symbol>
  <symbol id="archive" viewBox="0 0 24 24" fill="none" stroke="currentColor" stroke-width="1.5" stroke-linecap="round" stroke-linejoin="round"><rect x="3" y="5" width="18" height="4" rx="1"></rect><path d="M5 9v10a2 2 0 002 2h10a2 2 0 002-2V9"></path><path d="M10 13h4"></path></symbol>
  <symbol id="arrow-right" viewBox="0 0 24 24" fill="none" stroke="currentColor" stroke-width="1.5" stroke-linecap="round" stroke-linejoin="round"><path d="M5 12h14M13 6l6 6-6 6"></path></symbol>
  <symbol id="plus" viewBox="0 0 24 24" fill="none" stroke="currentColor" stroke-width="1.5" stroke-linecap="round" stroke-linejoin="round"><circle cx="12" cy="12" r="9"></circle><path d="M12 8v8M8 12h8"></path></symbol>
  <symbol id="search" viewBox="0 0 24 24" fill="none" stroke="currentColor" stroke-width="1.5" stroke-linecap="round" stroke-linejoin="round"><circle cx="11" cy="11" r="6"></circle><path d="M15.5 15.5L20 20"></path></symbol>
</svg>